PathFileType	4	(X/Y/Z)	s04c0402.trc
DataRate	CameraRate	NumFrames	NumMarkers	Units	OrigDataRate	OrigDataStartFrame	OrigNumFrames
200	200	5	50	mm	200	0	2000
Frame#	Time	racr			lacr			c7			jug			rlel			rdr			llel			ldr			s2			lic			ric			lasi			rasi			rpsi			lpsi			rgt			lgt			rth1			rth2			rth3			rth4			rlfc			rmfc			rsh1			rsh2			rsh3			rsh4			rlmal			rmmal			rcal			rtoe			rmt5			lth1			lth2			lth4			lth3			llfc			lmfc			lsh1			lsh2			lsh3			lsh4			llmal			lmmal			lcal			ltoe			lmt5			SBIKE			LBIKE			RBIKE			
		X1	Y1	Z1	X2	Y2	Z2	X3	Y3	Z3	X4	Y4	Z4	X5	Y5	Z5	X6	Y6	Z6	X7	Y7	Z7	X8	Y8	Z8	X9	Y9	Z9	X10	Y10	Z10	X11	Y11	Z11	X12	Y12	Z12	X13	Y13	Z13	X14	Y14	Z14	X15	Y15	Z15	X16	Y16	Z16	X17	Y17	Z17	X18	Y18	Z18	X19	Y19	Z19	X20	Y20	Z20	X21	Y21	Z21	X22	Y22	Z22	X23	Y23	Z23	X24	Y24	Z24	X25	Y25	Z25	X26	Y26	Z26	X27	Y27	Z27	X28	Y28	Z28	X29	Y29	Z29	X30	Y30	Z30	X31	Y31	Z31	X32	Y32	Z32	X33	Y33	Z33	X34	Y34	Z34	X35	Y35	Z35	X36	Y36	Z36	X37	Y37	Z37	X38	Y38	Z38	X39	Y39	Z39	X40	Y40	Z40	X41	Y41	Z41	X42	Y42	Z42	X43	Y43	Z43	X44	Y44	Z44	X45	Y45	Z45	X46	Y46	Z46	X47	Y47	Z47	X48	Y48	Z48	X49	Y49	Z49	X50	Y50	Z50	
0	0.0000	475.013748	1479.667908	-138.976951	473.975256	1473.358052	-429.674861	441.377717	1527.134652	-291.199341	468.673560	1380.924012	-286.556466	497.892638	1163.264343	-45.143767	695.783711	941.020423	-98.942352	489.529404	1180.073069	-522.043677	684.656429	940.314555	-488.251299	-54.319376	1182.894785	-286.826787	107.140015	1187.726265	-441.199372	112.464324	1165.856649	-127.695273	138.506199	1140.018721	-399.414890	152.238372	1113.242812	-174.805266	-17.777006	1217.163504	-240.922009	-25.197750	1226.828469	-317.059784	55.966458	1107.804130	-113.183785	55.699065	1122.709170	-486.219544	138.730814	964.467683	-97.018370	197.534160	899.748033	-107.511965	220.603887	817.186537	-112.415164	226.015108	916.960295	-126.335124	271.127504	681.702578	-139.358037	243.220904	665.478121	-249.865862	199.464748	577.764355	-111.528857	172.885774	491.728109	-124.059922	105.979929	435.734597	-127.939606	198.554482	478.428759	-150.462571	33.703022	303.713856	-134.453852	52.835248	305.441483	-220.052271	-43.836597	289.641909	-173.127474	239.911946	191.846238	-161.814068	168.896922	188.775403	-106.909461	116.148270	1068.548187	-494.530638	201.300539	1057.156642	-502.003595	216.283082	1087.203409	-486.405005	271.100584	1002.766721	-515.343588	408.737674	914.228771	-498.008880	448.793365	899.202106	-391.406780	374.819769	802.186190	-513.168477	356.646234	720.680555	-485.116420	297.824770	654.791699	-475.260088	382.623812	714.187881	-456.433544	225.196647	530.060204	-453.089256	226.976262	539.536559	-365.279182	144.180700	510.473967	-404.546349	443.641174	488.525526	-422.852531	369.894530	451.747797	-480.387111	-185.635768	932.648041	-286.829776	-17.400242	79.427784	-485.868661	-17.561151	79.275401	-84.868802	
1	0.0050	475.013197	1479.653933	-138.935513	473.949756	1473.497968	-429.599602	441.200497	1527.559917	-291.421882	468.658465	1380.920039	-286.515601	497.755873	1163.192111	-45.370885	695.808723	941.017830	-99.031811	489.489592	1180.106326	-521.819191	684.737251	940.316067	-488.064005	-54.306658	1182.919368	-286.823276	107.141978	1187.745644	-441.201642	112.489165	1165.831211	-127.698837	138.518381	1140.014889	-399.381765	152.248020	1113.244240	-174.826425	-17.721416	1217.158527	-240.938320	-25.173152	1226.837702	-317.072237	55.980139	1107.784137	-113.190985	55.723718	1122.722551	-486.223016	138.743463	964.447215	-97.033739	197.524932	899.740807	-107.522977	220.592977	817.164690	-112.428680	226.031490	916.941481	-126.336274	271.109304	681.679277	-139.366150	243.188721	665.481717	-249.880042	199.458780	577.776246	-111.543487	172.835413	491.744451	-124.063405	105.943036	435.735086	-127.957933	198.506421	478.427849	-150.464435	33.627506	303.753007	-134.460978	52.754884	305.471155	-220.076853	-43.910647	289.672611	-173.125020	239.861439	191.903259	-161.815271	168.833357	188.814500	-106.913787	116.147911	1068.556965	-494.568178	201.297238	1057.098257	-502.024645	216.316095	1087.177724	-486.399595	271.117195	1002.712051	-515.346864	408.704187	914.157070	-497.998539	448.772749	899.136402	-391.381481	374.793243	802.092836	-513.175398	356.634158	720.603277	-485.116990	297.818039	654.717997	-475.253383	382.614949	714.092227	-456.416103	225.207380	529.969896	-453.087457	226.998202	539.428115	-365.268802	144.188364	510.354875	-404.542672	443.666481	488.521605	-422.842174	369.934900	451.717306	-480.375992	-185.643808	932.644957	-286.836826	-17.390983	79.446383	-485.850984	-17.552305	79.286389	-84.885347	
2	0.0100	474.992080	1479.688569	-138.947058	473.916200	1473.627405	-429.513767	441.177607	1527.569984	-291.500268	468.627791	1380.938444	-286.517656	497.628087	1163.123816	-45.577293	695.826103	941.018131	-99.137807	489.504906	1180.122381	-521.612290	684.863332	940.369869	-487.845921	-54.281314	1182.912965	-286.818231	107.151598	1187.755458	-441.198027	112.481172	1165.823328	-127.694962	138.540150	1140.015389	-399.399240	152.237514	1113.247263	-174.819391	-17.741265	1217.163913	-240.927957	-25.155959	1226.848161	-317.066045	55.978001	1107.781491	-113.178849	55.735171	1122.723674	-486.230362	138.739482	964.439757	-97.034591	197.565396	899.773528	-107.481137	220.556274	817.147498	-112.427183	226.012130	916.932986	-126.314169	271.095027	681.668540	-139.374951	243.172986	665.462501	-249.888496	199.417361	577.768111	-111.553939	172.793874	491.736458	-124.065551	105.887824	435.761370	-127.957305	198.466257	478.441899	-150.470441	33.540941	303.773456	-134.460796	52.695060	305.482483	-220.074058	-43.991427	289.686921	-173.134469	239.796406	191.945778	-161.813530	168.769930	188.850990	-106.919082	116.152397	1068.545571	-494.580465	201.309157	1057.069085	-502.033617	216.325432	1087.152558	-486.410254	271.106506	1002.669387	-515.342316	408.678170	914.074462	-497.982199	448.742306	899.066318	-391.373511	374.789381	802.011696	-513.163488	356.631197	720.508074	-485.102293	297.822863	654.629546	-475.244991	382.614673	714.009912	-456.409871	225.228894	529.879908	-453.089126	227.012314	539.338249	-365.275078	144.204457	510.230482	-404.538289	443.680117	488.514081	-422.843455	369.964568	451.683472	-480.370588	-185.647682	932.638807	-286.844904	-17.382815	79.435317	-485.851170	-17.549235	79.295490	-84.868201	
3	0.0150	474.959927	1479.723553	-138.950847	473.870049	1473.749305	-429.443886	441.184647	1527.575642	-291.533772	468.646449	1380.946082	-286.512416	497.513836	1163.044202	-45.790424	696.151889	941.121903	-98.856709	489.646328	1180.055582	-521.008028	684.969490	940.385882	-487.623784	-54.081090	1183.703000	-285.909181	107.179164	1187.772070	-441.215582	112.620135	1165.743724	-127.650062	138.562388	1140.011206	-399.346592	152.145311	1113.451095	-174.867249	-17.709996	1217.171857	-240.936453	-25.131827	1226.852820	-317.055279	55.924934	1107.684771	-113.172703	55.760053	1122.739847	-486.225878	138.725009	964.424979	-97.048920	198.120444	899.286217	-107.274956	220.531162	817.131249	-112.437391	225.993962	916.925414	-126.291486	271.070874	681.671839	-139.379311	243.141032	665.485786	-249.909142	199.386294	577.772074	-111.563446	172.039724	491.156746	-124.912941	105.843260	435.757836	-127.963718	198.465886	478.358976	-150.482411	33.474909	303.788000	-134.291803	52.622250	305.499470	-220.072618	-43.967094	289.764356	-173.184064	239.754169	191.998801	-161.819413	168.717505	188.901436	-106.913309	116.311164	1068.805784	-494.840797	201.310523	1057.046936	-502.037729	216.326401	1087.352763	-486.675899	271.105968	1002.621890	-515.324784	408.611818	914.051955	-497.912183	448.702166	898.984473	-391.322718	374.761049	801.936561	-513.154293	356.654149	720.436313	-485.197528	297.734572	654.463461	-475.259408	382.662455	713.967285	-456.682681	225.265323	529.664103	-452.858334	226.905959	539.279845	-364.953056	144.202134	510.075988	-404.534762	443.730810	488.540569	-422.891779	369.999076	451.649330	-480.376957	-185.718292	932.658044	-287.115034	-17.393680	79.429308	-485.859043	-17.554629	79.295833	-84.869320	
4	0.0200	474.921613	1479.749601	-138.965677	473.786907	1473.918027	-429.341290	441.197678	1527.465980	-291.481892	468.677102	1380.906683	-286.455045	497.471163	1163.002585	-45.973429	696.270635	941.161878	-98.801824	489.775669	1180.094999	-520.659868	685.003099	940.248416	-487.239082	-54.060235	1183.772123	-285.943510	107.180276	1187.780716	-441.226355	112.387374	1165.908106	-127.975070	138.561993	1140.080086	-399.417631	152.303623	1113.785943	-174.526651	-17.688405	1217.155640	-241.173894	-25.054660	1226.996336	-316.902069	56.043458	1107.814563	-113.133592	55.715815	1122.583082	-486.172777	138.701925	964.427310	-97.089374	198.183186	899.452542	-107.440019	220.527939	817.129215	-112.429704	225.984787	916.948659	-126.273753	271.104037	681.663026	-139.348924	243.075870	665.551919	-249.938887	199.318277	577.713601	-111.549764	171.984358	491.110544	-124.944940	105.792190	435.745349	-127.952614	198.117754	478.060919	-150.899743	33.446572	303.882725	-134.115113	52.625805	305.571342	-220.099937	-44.013091	289.822569	-173.182851	239.752082	191.989752	-161.883687	168.646574	188.900874	-107.149647	116.335926	1068.802091	-494.879862	201.218935	1056.867651	-501.906411	216.275197	1087.229328	-486.585754	271.021099	1002.504768	-515.159102	408.572610	913.948450	-497.847145	448.648464	898.891758	-391.258616	374.718427	801.771656	-512.804375	356.645233	720.372255	-485.209115	297.670218	654.375622	-475.200460	382.666872	713.895349	-456.713030	225.237481	529.525544	-452.716649	226.826257	539.146893	-365.018670	144.251312	509.918904	-404.524023	443.751724	488.532355	-422.896746	370.051914	451.653450	-480.370025	-185.706455	932.640797	-287.122299	-17.214210	79.697338	-485.639035	-17.524002	79.354473	-84.790672	
